<mxfile host="65bd71144e">
    <diagram id="cr1_8u101ufc5Ftmu3sM" name="DND">
        <mxGraphModel dx="743" dy="647" grid="1" gridSize="10" guides="1" tooltips="1" connect="1" arrows="1" fold="1" page="1" pageScale="1" pageWidth="827" pageHeight="1169" math="0" shadow="0">
            <root>
                <mxCell id="0"/>
                <mxCell id="1" parent="0"/>
                <mxCell id="52" value="" style="rounded=0;whiteSpace=wrap;html=1;fontSize=10;align=left;dashed=1;strokeColor=#6c8ebf;fillColor=#dae8fc;fillOpacity=6;strokeOpacity=70;" parent="1" vertex="1">
                    <mxGeometry x="30" y="260" width="780" height="30" as="geometry"/>
                </mxCell>
                <mxCell id="38" style="edgeStyle=orthogonalEdgeStyle;rounded=0;orthogonalLoop=1;jettySize=auto;html=1;entryX=0;entryY=0.75;entryDx=0;entryDy=0;fillColor=#d80073;strokeColor=#4D4D4D;exitX=1;exitY=0.75;exitDx=0;exitDy=0;" parent="1" source="10" target="11" edge="1">
                    <mxGeometry relative="1" as="geometry">
                        <mxPoint x="380" y="139.92" as="sourcePoint"/>
                        <mxPoint x="460" y="139.92" as="targetPoint"/>
                        <Array as="points"/>
                    </mxGeometry>
                </mxCell>
                <mxCell id="36" value="" style="rounded=0;whiteSpace=wrap;html=1;fontSize=10;fontColor=#ffffff;align=left;dashed=1;strokeColor=#005700;fillColor=#008a00;fillOpacity=6;strokeOpacity=70;" parent="1" vertex="1">
                    <mxGeometry x="440" y="110" width="160" height="60" as="geometry"/>
                </mxCell>
                <mxCell id="22" value="– source element" style="text;html=1;strokeColor=none;fillColor=none;align=left;verticalAlign=middle;whiteSpace=wrap;rounded=0;spacingLeft=3;" parent="1" vertex="1">
                    <mxGeometry x="690" y="440" width="110" height="20" as="geometry"/>
                </mxCell>
                <mxCell id="23" value="– target element" style="text;html=1;strokeColor=none;fillColor=none;align=left;verticalAlign=middle;whiteSpace=wrap;rounded=0;spacingLeft=3;" parent="1" vertex="1">
                    <mxGeometry x="690" y="460" width="110" height="20" as="geometry"/>
                </mxCell>
                <mxCell id="25" style="edgeStyle=orthogonalEdgeStyle;rounded=0;orthogonalLoop=1;jettySize=auto;html=1;entryX=0;entryY=0.5;entryDx=0;entryDy=0;strokeColor=#4D4D4D;" parent="1" source="9" target="10" edge="1">
                    <mxGeometry relative="1" as="geometry"/>
                </mxCell>
                <mxCell id="9" value="Drag Start" style="rounded=1;whiteSpace=wrap;html=1;" parent="1" vertex="1">
                    <mxGeometry x="60" y="120" width="120" height="40" as="geometry"/>
                </mxCell>
                <mxCell id="28" style="edgeStyle=orthogonalEdgeStyle;orthogonalLoop=1;jettySize=auto;html=1;exitX=1;exitY=0.75;exitDx=0;exitDy=0;rounded=1;strokeColor=#4D4D4D;" parent="1" source="10" edge="1">
                    <mxGeometry relative="1" as="geometry">
                        <mxPoint x="660" y="140" as="targetPoint"/>
                        <Array as="points">
                            <mxPoint x="420" y="150"/>
                            <mxPoint x="420" y="190"/>
                            <mxPoint x="620" y="190"/>
                            <mxPoint x="620" y="140"/>
                        </Array>
                    </mxGeometry>
                </mxCell>
                <mxCell id="10" value="Drag Over" style="rounded=1;whiteSpace=wrap;html=1;" parent="1" vertex="1">
                    <mxGeometry x="260" y="120" width="120" height="40" as="geometry"/>
                </mxCell>
                <mxCell id="27" style="edgeStyle=orthogonalEdgeStyle;rounded=0;orthogonalLoop=1;jettySize=auto;html=1;entryX=0;entryY=0.5;entryDx=0;entryDy=0;strokeColor=#4D4D4D;" parent="1" source="11" target="12" edge="1">
                    <mxGeometry relative="1" as="geometry"/>
                </mxCell>
                <mxCell id="11" value="Drop" style="rounded=1;whiteSpace=wrap;html=1;" parent="1" vertex="1">
                    <mxGeometry x="460" y="120" width="120" height="40" as="geometry"/>
                </mxCell>
                <mxCell id="12" value="Drag End" style="rounded=1;whiteSpace=wrap;html=1;" parent="1" vertex="1">
                    <mxGeometry x="660" y="120" width="120" height="40" as="geometry"/>
                </mxCell>
                <mxCell id="14" value="" style="ellipse;whiteSpace=wrap;html=1;aspect=fixed;fillColor=#d80073;strokeColor=#A50040;fontColor=#ffffff;" parent="1" vertex="1">
                    <mxGeometry x="63" y="123" width="10" height="10" as="geometry"/>
                </mxCell>
                <mxCell id="16" value="" style="ellipse;whiteSpace=wrap;html=1;aspect=fixed;fillColor=#d80073;strokeColor=#A50040;fontColor=#ffffff;" parent="1" vertex="1">
                    <mxGeometry x="663" y="123" width="10" height="10" as="geometry"/>
                </mxCell>
                <mxCell id="17" value="" style="ellipse;whiteSpace=wrap;html=1;aspect=fixed;fillColor=#1ba1e2;strokeColor=#006EAF;fontColor=#ffffff;" parent="1" vertex="1">
                    <mxGeometry x="263" y="123" width="10" height="10" as="geometry"/>
                </mxCell>
                <mxCell id="18" value="" style="ellipse;whiteSpace=wrap;html=1;aspect=fixed;fillColor=#1ba1e2;strokeColor=#006EAF;fontColor=#ffffff;" parent="1" vertex="1">
                    <mxGeometry x="463" y="123" width="10" height="10" as="geometry"/>
                </mxCell>
                <mxCell id="19" value="" style="ellipse;whiteSpace=wrap;html=1;aspect=fixed;fillColor=#d80073;strokeColor=#A50040;fontColor=#ffffff;" parent="1" vertex="1">
                    <mxGeometry x="680" y="445" width="10" height="10" as="geometry"/>
                </mxCell>
                <mxCell id="20" value="" style="ellipse;whiteSpace=wrap;html=1;aspect=fixed;fillColor=#1ba1e2;strokeColor=#006EAF;fontColor=#ffffff;" parent="1" vertex="1">
                    <mxGeometry x="680" y="466" width="10" height="10" as="geometry"/>
                </mxCell>
                <mxCell id="34" style="edgeStyle=orthogonalEdgeStyle;rounded=1;orthogonalLoop=1;jettySize=auto;html=1;entryX=0.5;entryY=0;entryDx=0;entryDy=0;strokeColor=#A50040;fillColor=#d80073;" parent="1" source="30" target="10" edge="1">
                    <mxGeometry relative="1" as="geometry"/>
                </mxCell>
                <mxCell id="30" value="Outer source" style="text;html=1;strokeColor=none;fillColor=none;align=center;verticalAlign=middle;whiteSpace=wrap;rounded=0;fontColor=#A50040;" parent="1" vertex="1">
                    <mxGeometry x="260" y="60" width="120" height="20" as="geometry"/>
                </mxCell>
                <mxCell id="33" style="edgeStyle=orthogonalEdgeStyle;rounded=1;orthogonalLoop=1;jettySize=auto;html=1;entryX=0.5;entryY=0;entryDx=0;entryDy=0;strokeColor=#4D4D4D;" parent="1" source="32" target="9" edge="1">
                    <mxGeometry relative="1" as="geometry"/>
                </mxCell>
                <mxCell id="32" value="Inner source" style="text;html=1;strokeColor=none;fillColor=none;align=center;verticalAlign=middle;whiteSpace=wrap;rounded=0;" parent="1" vertex="1">
                    <mxGeometry x="60" y="60" width="120" height="20" as="geometry"/>
                </mxCell>
                <mxCell id="35" value="dropped outside a drop zone" style="text;html=1;strokeColor=none;fillColor=none;align=center;verticalAlign=middle;whiteSpace=wrap;rounded=0;fontSize=10;fontColor=#4D4D4D;" parent="1" vertex="1">
                    <mxGeometry x="420" y="190" width="200" height="20" as="geometry"/>
                </mxCell>
                <mxCell id="37" value="drop zone" style="text;html=1;strokeColor=none;fillColor=none;align=left;verticalAlign=middle;whiteSpace=wrap;rounded=0;fontSize=10;fontColor=#005700;textOpacity=70;" parent="1" vertex="1">
                    <mxGeometry x="440" y="90" width="160" height="20" as="geometry"/>
                </mxCell>
                <mxCell id="39" value="Dragging Object" style="rounded=1;whiteSpace=wrap;html=1;fontSize=10;fontColor=#ffffff;strokeColor=#A50040;fillColor=#d80073;align=center;" parent="1" vertex="1">
                    <mxGeometry x="75" y="360" width="90" height="20" as="geometry"/>
                </mxCell>
                <mxCell id="40" value="Started" style="text;html=1;strokeColor=none;fillColor=none;align=center;verticalAlign=middle;whiteSpace=wrap;rounded=0;fontColor=#4D4D4D;" parent="1" vertex="1">
                    <mxGeometry x="60" y="260" width="120" height="30" as="geometry"/>
                </mxCell>
                <mxCell id="41" value="Dragging" style="text;html=1;strokeColor=none;fillColor=none;align=center;verticalAlign=middle;whiteSpace=wrap;rounded=0;fontColor=#4D4D4D;" parent="1" vertex="1">
                    <mxGeometry x="260" y="260" width="120" height="30" as="geometry"/>
                </mxCell>
                <mxCell id="42" value="Dropped" style="text;html=1;strokeColor=none;fillColor=none;align=center;verticalAlign=middle;whiteSpace=wrap;rounded=0;fontColor=#4D4D4D;" parent="1" vertex="1">
                    <mxGeometry x="460" y="260" width="120" height="30" as="geometry"/>
                </mxCell>
                <mxCell id="43" value="Finished" style="text;html=1;strokeColor=none;fillColor=none;align=center;verticalAlign=middle;whiteSpace=wrap;rounded=0;fontColor=#4D4D4D;" parent="1" vertex="1">
                    <mxGeometry x="660" y="260" width="120" height="30" as="geometry"/>
                </mxCell>
                <mxCell id="44" value="Dragging Object" style="rounded=1;whiteSpace=wrap;html=1;fontSize=10;fontColor=#ffffff;strokeColor=#A50040;fillColor=#d80073;align=center;opacity=20;" parent="1" vertex="1">
                    <mxGeometry x="675" y="360" width="90" height="20" as="geometry"/>
                </mxCell>
                <mxCell id="46" style="edgeStyle=orthogonalEdgeStyle;rounded=0;orthogonalLoop=1;jettySize=auto;html=1;entryX=0;entryY=0.25;entryDx=0;entryDy=0;fillColor=#d80073;exitX=1;exitY=0.25;exitDx=0;exitDy=0;strokeColor=#A50040;" parent="1" source="10" target="11" edge="1">
                    <mxGeometry relative="1" as="geometry">
                        <mxPoint x="380" y="127.94999999999999" as="sourcePoint"/>
                        <mxPoint x="460" y="127.94999999999999" as="targetPoint"/>
                    </mxGeometry>
                </mxCell>
                <mxCell id="49" style="edgeStyle=orthogonalEdgeStyle;rounded=1;orthogonalLoop=1;jettySize=auto;html=1;fontSize=10;fontColor=#CCCCCC;endSize=3;strokeColor=#4D4D4D;" parent="1" edge="1">
                    <mxGeometry relative="1" as="geometry">
                        <mxPoint x="320" y="370" as="targetPoint"/>
                        <mxPoint x="290" y="370" as="sourcePoint"/>
                    </mxGeometry>
                </mxCell>
                <mxCell id="47" value="" style="ellipse;whiteSpace=wrap;html=1;aspect=fixed;fillColor=#1ba1e2;strokeColor=#006EAF;fontColor=#ffffff;" parent="1" vertex="1">
                    <mxGeometry x="270" y="365" width="10" height="10" as="geometry"/>
                </mxCell>
                <mxCell id="48" value="" style="rounded=0;whiteSpace=wrap;html=1;fontSize=10;fontColor=#ffffff;align=left;dashed=1;strokeColor=#005700;fillColor=#008a00;fillOpacity=6;strokeOpacity=70;" parent="1" vertex="1">
                    <mxGeometry x="330" y="360" width="40" height="20" as="geometry"/>
                </mxCell>
                <mxCell id="50" value="drop zone" style="text;html=1;strokeColor=none;fillColor=none;align=left;verticalAlign=middle;whiteSpace=wrap;rounded=0;fontSize=8;fontColor=#005700;textOpacity=70;" parent="1" vertex="1">
                    <mxGeometry x="330" y="360" width="40" height="20" as="geometry"/>
                </mxCell>
                <mxCell id="51" value="Drag Stages" style="text;html=1;strokeColor=none;fillColor=none;align=left;verticalAlign=middle;whiteSpace=wrap;rounded=0;fontColor=#4D4D4D;fontSize=10;" parent="1" vertex="1">
                    <mxGeometry x="30" y="240" width="80" height="20" as="geometry"/>
                </mxCell>
            </root>
        </mxGraphModel>
    </diagram>
    <diagram id="hrbs73qgmohSJqtUVYzX" name="Focus">
        <mxGraphModel dx="743" dy="647" grid="1" gridSize="10" guides="1" tooltips="1" connect="1" arrows="1" fold="1" page="1" pageScale="1" pageWidth="1169" pageHeight="827" math="0" shadow="0">
            <root>
                <mxCell id="tb83j11qum5MAXQGklNA-0"/>
                <mxCell id="tb83j11qum5MAXQGklNA-1" parent="tb83j11qum5MAXQGklNA-0"/>
                <mxCell id="4Dq3Pve9boTTn6wf6WD--0" value="popup window" style="rounded=0;whiteSpace=wrap;html=1;fontFamily=Helvetica;fontSize=9;fontColor=default;strokeColor=#006EAF;fillColor=#1ba1e2;verticalAlign=bottom;align=left;spacingRight=5;fillOpacity=40;" parent="tb83j11qum5MAXQGklNA-1" vertex="1">
                    <mxGeometry x="665" y="340" width="315" height="170" as="geometry"/>
                </mxCell>
                <mxCell id="6RVOOF6dNoMXqNm8IWjH-59" value="View:&lt;br&gt;e.dataForSensor.focus = model" style="rounded=1;whiteSpace=wrap;html=1;fontFamily=Courier New;fontSize=10;fillColor=none;strokeColor=#006EAF;align=left;spacingLeft=16;" parent="tb83j11qum5MAXQGklNA-1" vertex="1">
                    <mxGeometry x="110" y="40" width="310" height="30" as="geometry"/>
                </mxCell>
                <mxCell id="6RVOOF6dNoMXqNm8IWjH-44" style="edgeStyle=orthogonalEdgeStyle;curved=1;html=1;entryX=0.5;entryY=0;entryDx=0;entryDy=0;" parent="tb83j11qum5MAXQGklNA-1" source="6RVOOF6dNoMXqNm8IWjH-5" target="6RVOOF6dNoMXqNm8IWjH-10" edge="1">
                    <mxGeometry relative="1" as="geometry"/>
                </mxCell>
                <mxCell id="6RVOOF6dNoMXqNm8IWjH-5" value="AppWindow" style="rounded=1;whiteSpace=wrap;html=1;fillColor=#eeeeee;strokeColor=#36393d;" parent="tb83j11qum5MAXQGklNA-1" vertex="1">
                    <mxGeometry x="440" y="109.77" width="120" height="30.23" as="geometry"/>
                </mxCell>
                <mxCell id="6RVOOF6dNoMXqNm8IWjH-45" style="edgeStyle=orthogonalEdgeStyle;curved=1;html=1;entryX=0.5;entryY=0;entryDx=0;entryDy=0;" parent="tb83j11qum5MAXQGklNA-1" source="6RVOOF6dNoMXqNm8IWjH-7" target="6RVOOF6dNoMXqNm8IWjH-5" edge="1">
                    <mxGeometry relative="1" as="geometry"/>
                </mxCell>
                <mxCell id="6RVOOF6dNoMXqNm8IWjH-7" value="body" style="rounded=1;whiteSpace=wrap;html=1;fillColor=#eeeeee;strokeColor=#36393d;" parent="tb83j11qum5MAXQGklNA-1" vertex="1">
                    <mxGeometry x="440" y="50" width="120" height="29.77" as="geometry"/>
                </mxCell>
                <mxCell id="hP0huzATBLtgXGqkZDFe-14" style="edgeStyle=none;html=1;entryX=0.5;entryY=0;entryDx=0;entryDy=0;" parent="tb83j11qum5MAXQGklNA-1" source="6RVOOF6dNoMXqNm8IWjH-10" target="hP0huzATBLtgXGqkZDFe-11" edge="1">
                    <mxGeometry relative="1" as="geometry">
                        <Array as="points">
                            <mxPoint x="360" y="220"/>
                            <mxPoint x="310" y="340"/>
                        </Array>
                    </mxGeometry>
                </mxCell>
                <mxCell id="6RVOOF6dNoMXqNm8IWjH-10" value="WorkspacePanel" style="rounded=1;whiteSpace=wrap;html=1;fillColor=#1ba1e2;fontColor=default;strokeColor=#006EAF;fillOpacity=20;" parent="tb83j11qum5MAXQGklNA-1" vertex="1">
                    <mxGeometry x="440" y="170" width="120" height="30.23" as="geometry"/>
                </mxCell>
                <mxCell id="6RVOOF6dNoMXqNm8IWjH-14" value="" style="ellipse;whiteSpace=wrap;html=1;aspect=fixed;fillColor=#1ba1e2;strokeColor=#006EAF;fontColor=#ffffff;fontSize=8;" parent="tb83j11qum5MAXQGklNA-1" vertex="1">
                    <mxGeometry x="114" y="44" width="10" height="10" as="geometry"/>
                </mxCell>
                <mxCell id="6RVOOF6dNoMXqNm8IWjH-47" style="edgeStyle=orthogonalEdgeStyle;curved=1;html=1;entryX=0.5;entryY=0;entryDx=0;entryDy=0;" parent="tb83j11qum5MAXQGklNA-1" source="6RVOOF6dNoMXqNm8IWjH-35" target="6RVOOF6dNoMXqNm8IWjH-46" edge="1">
                    <mxGeometry relative="1" as="geometry"/>
                </mxCell>
                <mxCell id="6RVOOF6dNoMXqNm8IWjH-35" value="SheetPanel" style="rounded=1;whiteSpace=wrap;html=1;fillColor=#eeeeee;strokeColor=#36393d;" parent="tb83j11qum5MAXQGklNA-1" vertex="1">
                    <mxGeometry x="360" y="230" width="120" height="30" as="geometry"/>
                </mxCell>
                <mxCell id="6RVOOF6dNoMXqNm8IWjH-69" style="edgeStyle=none;html=1;entryX=0.5;entryY=0;entryDx=0;entryDy=0;fontFamily=Courier New;fontSize=8;fontColor=#000000;" parent="tb83j11qum5MAXQGklNA-1" source="6RVOOF6dNoMXqNm8IWjH-36" target="6RVOOF6dNoMXqNm8IWjH-67" edge="1">
                    <mxGeometry relative="1" as="geometry"/>
                </mxCell>
                <mxCell id="6RVOOF6dNoMXqNm8IWjH-36" value="SidebarPanel" style="rounded=1;whiteSpace=wrap;html=1;fillColor=#eeeeee;strokeColor=#36393d;" parent="tb83j11qum5MAXQGklNA-1" vertex="1">
                    <mxGeometry x="680" y="230" width="120" height="30" as="geometry"/>
                </mxCell>
                <mxCell id="6RVOOF6dNoMXqNm8IWjH-37" value="Toolbar" style="rounded=1;whiteSpace=wrap;html=1;fillColor=#eeeeee;strokeColor=#36393d;" parent="tb83j11qum5MAXQGklNA-1" vertex="1">
                    <mxGeometry x="200" y="230" width="120" height="30" as="geometry"/>
                </mxCell>
                <mxCell id="LmhFdAcjJDlFZFf1SMNo-1" style="edgeStyle=none;html=1;entryX=0.5;entryY=0;entryDx=0;entryDy=0;" parent="tb83j11qum5MAXQGklNA-1" source="6RVOOF6dNoMXqNm8IWjH-38" target="LmhFdAcjJDlFZFf1SMNo-0" edge="1">
                    <mxGeometry relative="1" as="geometry"/>
                </mxCell>
                <mxCell id="6RVOOF6dNoMXqNm8IWjH-38" value="MonacoEditor" style="rounded=1;whiteSpace=wrap;html=1;spacingLeft=3;" parent="tb83j11qum5MAXQGklNA-1" vertex="1">
                    <mxGeometry x="520" y="230" width="120" height="30" as="geometry"/>
                </mxCell>
                <mxCell id="6RVOOF6dNoMXqNm8IWjH-51" style="edgeStyle=orthogonalEdgeStyle;curved=1;html=1;entryX=0.5;entryY=0;entryDx=0;entryDy=0;" parent="tb83j11qum5MAXQGklNA-1" source="6RVOOF6dNoMXqNm8IWjH-46" target="6RVOOF6dNoMXqNm8IWjH-49" edge="1">
                    <mxGeometry relative="1" as="geometry"/>
                </mxCell>
                <mxCell id="6RVOOF6dNoMXqNm8IWjH-46" value="GridScrollBox" style="rounded=1;whiteSpace=wrap;html=1;" parent="tb83j11qum5MAXQGklNA-1" vertex="1">
                    <mxGeometry x="360" y="289.77" width="120" height="30.23" as="geometry"/>
                </mxCell>
                <mxCell id="wGKvVfvuGRhEK224psej-3" style="edgeStyle=none;html=1;entryX=0.5;entryY=0;entryDx=0;entryDy=0;" parent="tb83j11qum5MAXQGklNA-1" source="6RVOOF6dNoMXqNm8IWjH-49" target="wGKvVfvuGRhEK224psej-1" edge="1">
                    <mxGeometry relative="1" as="geometry"/>
                </mxCell>
                <mxCell id="6RVOOF6dNoMXqNm8IWjH-49" value="Quarter0" style="rounded=1;whiteSpace=wrap;html=1;fillColor=#eeeeee;strokeColor=#36393d;" parent="tb83j11qum5MAXQGklNA-1" vertex="1">
                    <mxGeometry x="360" y="349.77" width="120" height="30.23" as="geometry"/>
                </mxCell>
                <mxCell id="6RVOOF6dNoMXqNm8IWjH-50" value="OverlayGrid" style="rounded=1;whiteSpace=wrap;html=1;fillColor=#eeeeee;strokeColor=#36393d;" parent="tb83j11qum5MAXQGklNA-1" vertex="1">
                    <mxGeometry x="520" y="349.77" width="120" height="30.23" as="geometry"/>
                </mxCell>
                <mxCell id="6RVOOF6dNoMXqNm8IWjH-39" style="edgeStyle=none;html=1;entryX=0.5;entryY=0;entryDx=0;entryDy=0;" parent="tb83j11qum5MAXQGklNA-1" source="6RVOOF6dNoMXqNm8IWjH-10" target="6RVOOF6dNoMXqNm8IWjH-37" edge="1">
                    <mxGeometry relative="1" as="geometry"/>
                </mxCell>
                <mxCell id="6RVOOF6dNoMXqNm8IWjH-41" style="edgeStyle=none;html=1;entryX=0.5;entryY=0;entryDx=0;entryDy=0;" parent="tb83j11qum5MAXQGklNA-1" source="6RVOOF6dNoMXqNm8IWjH-10" target="6RVOOF6dNoMXqNm8IWjH-35" edge="1">
                    <mxGeometry relative="1" as="geometry"/>
                </mxCell>
                <mxCell id="6RVOOF6dNoMXqNm8IWjH-42" style="edgeStyle=none;html=1;entryX=0.5;entryY=0;entryDx=0;entryDy=0;" parent="tb83j11qum5MAXQGklNA-1" source="6RVOOF6dNoMXqNm8IWjH-10" target="6RVOOF6dNoMXqNm8IWjH-36" edge="1">
                    <mxGeometry relative="1" as="geometry"/>
                </mxCell>
                <mxCell id="6RVOOF6dNoMXqNm8IWjH-43" style="edgeStyle=none;html=1;entryX=0.5;entryY=0;entryDx=0;entryDy=0;" parent="tb83j11qum5MAXQGklNA-1" source="6RVOOF6dNoMXqNm8IWjH-10" target="6RVOOF6dNoMXqNm8IWjH-38" edge="1">
                    <mxGeometry relative="1" as="geometry"/>
                </mxCell>
                <mxCell id="6RVOOF6dNoMXqNm8IWjH-56" value="StdLabel" style="rounded=1;whiteSpace=wrap;html=1;sketch=0;glass=0;shadow=0;" parent="tb83j11qum5MAXQGklNA-1" vertex="1">
                    <mxGeometry x="280" y="409.89" width="120" height="30.23" as="geometry"/>
                </mxCell>
                <mxCell id="6RVOOF6dNoMXqNm8IWjH-58" value="1" style="ellipse;whiteSpace=wrap;html=1;aspect=fixed;fillColor=#1ba1e2;strokeColor=#006EAF;fontColor=#ffffff;fontSize=8;" parent="tb83j11qum5MAXQGklNA-1" vertex="1">
                    <mxGeometry x="443" y="173" width="10" height="10" as="geometry"/>
                </mxCell>
                <mxCell id="6RVOOF6dNoMXqNm8IWjH-60" value="Reaction:&lt;br&gt;&lt;span style=&quot;font-size: 9px&quot;&gt;model.isEditMode ?&amp;nbsp;&lt;/span&gt;&lt;span style=&quot;font-size: 9px&quot;&gt;e.focus() :&amp;nbsp;&lt;/span&gt;&lt;span style=&quot;font-size: 9px&quot;&gt;e.blur()&lt;/span&gt;" style="rounded=1;whiteSpace=wrap;html=1;fontFamily=Courier New;fontSize=10;fillColor=none;strokeColor=#A50040;align=left;spacingLeft=16;fontColor=#000000;verticalAlign=middle;arcSize=12;absoluteArcSize=0;" parent="tb83j11qum5MAXQGklNA-1" vertex="1">
                    <mxGeometry x="110" y="80" width="310" height="30" as="geometry"/>
                </mxCell>
                <mxCell id="6RVOOF6dNoMXqNm8IWjH-61" value="" style="ellipse;whiteSpace=wrap;html=1;aspect=fixed;fillColor=#d80073;strokeColor=#A50040;fontColor=#ffffff;" parent="tb83j11qum5MAXQGklNA-1" vertex="1">
                    <mxGeometry x="114" y="84" width="10" height="10" as="geometry"/>
                </mxCell>
                <mxCell id="6RVOOF6dNoMXqNm8IWjH-62" value="1" style="ellipse;whiteSpace=wrap;html=1;aspect=fixed;fillColor=#d80073;strokeColor=#A50040;fontColor=#ffffff;fontSize=8;" parent="tb83j11qum5MAXQGklNA-1" vertex="1">
                    <mxGeometry x="363" y="306.77" width="10" height="10" as="geometry"/>
                </mxCell>
                <mxCell id="6RVOOF6dNoMXqNm8IWjH-64" value="2" style="ellipse;whiteSpace=wrap;html=1;aspect=fixed;fillColor=#1ba1e2;strokeColor=#006EAF;fontColor=#ffffff;fontSize=8;" parent="tb83j11qum5MAXQGklNA-1" vertex="1">
                    <mxGeometry x="283" y="412.99999999999994" width="10" height="10" as="geometry"/>
                </mxCell>
                <mxCell id="6RVOOF6dNoMXqNm8IWjH-65" value="3" style="ellipse;whiteSpace=wrap;html=1;aspect=fixed;fillColor=#d80073;strokeColor=#A50040;fontColor=#ffffff;fontSize=8;" parent="tb83j11qum5MAXQGklNA-1" vertex="1">
                    <mxGeometry x="523" y="245.99999999999997" width="10" height="10" as="geometry"/>
                </mxCell>
                <mxCell id="6RVOOF6dNoMXqNm8IWjH-66" value="3" style="ellipse;whiteSpace=wrap;html=1;aspect=fixed;fillColor=#1ba1e2;strokeColor=#006EAF;fontColor=#ffffff;fontSize=8;" parent="tb83j11qum5MAXQGklNA-1" vertex="1">
                    <mxGeometry x="523" y="232.99999999999997" width="10" height="10" as="geometry"/>
                </mxCell>
                <mxCell id="6RVOOF6dNoMXqNm8IWjH-55" style="edgeStyle=none;html=1;entryX=0.5;entryY=0;entryDx=0;entryDy=0;" parent="tb83j11qum5MAXQGklNA-1" source="6RVOOF6dNoMXqNm8IWjH-46" target="6RVOOF6dNoMXqNm8IWjH-50" edge="1">
                    <mxGeometry relative="1" as="geometry"/>
                </mxCell>
                <mxCell id="6RVOOF6dNoMXqNm8IWjH-73" style="edgeStyle=none;html=1;entryX=0.5;entryY=0;entryDx=0;entryDy=0;fontFamily=Courier New;fontSize=8;fontColor=#000000;" parent="tb83j11qum5MAXQGklNA-1" source="6RVOOF6dNoMXqNm8IWjH-67" target="6RVOOF6dNoMXqNm8IWjH-70" edge="1">
                    <mxGeometry relative="1" as="geometry"/>
                </mxCell>
                <mxCell id="6RVOOF6dNoMXqNm8IWjH-67" value="InspectorPanel" style="rounded=1;whiteSpace=wrap;html=1;fillColor=#eeeeee;strokeColor=#36393d;" parent="tb83j11qum5MAXQGklNA-1" vertex="1">
                    <mxGeometry x="680" y="289.77" width="120" height="30.23" as="geometry"/>
                </mxCell>
                <mxCell id="6RVOOF6dNoMXqNm8IWjH-72" style="edgeStyle=none;html=1;entryX=0.5;entryY=0;entryDx=0;entryDy=0;fontFamily=Courier New;fontSize=8;fontColor=#000000;" parent="tb83j11qum5MAXQGklNA-1" source="6RVOOF6dNoMXqNm8IWjH-70" target="6RVOOF6dNoMXqNm8IWjH-71" edge="1">
                    <mxGeometry relative="1" as="geometry"/>
                </mxCell>
                <mxCell id="6RVOOF6dNoMXqNm8IWjH-75" style="edgeStyle=none;html=1;entryX=0.5;entryY=0;entryDx=0;entryDy=0;fontFamily=Courier New;fontSize=8;fontColor=#000000;" parent="tb83j11qum5MAXQGklNA-1" source="6RVOOF6dNoMXqNm8IWjH-70" target="6RVOOF6dNoMXqNm8IWjH-74" edge="1">
                    <mxGeometry relative="1" as="geometry"/>
                </mxCell>
                <mxCell id="6RVOOF6dNoMXqNm8IWjH-70" value="Badge[x]" style="rounded=1;whiteSpace=wrap;html=1;fillColor=#eeeeee;strokeColor=#36393d;" parent="tb83j11qum5MAXQGklNA-1" vertex="1">
                    <mxGeometry x="680" y="349.77" width="120" height="30.23" as="geometry"/>
                </mxCell>
                <mxCell id="6RVOOF6dNoMXqNm8IWjH-71" value="Input" style="rounded=1;whiteSpace=wrap;html=1;fillColor=#ffe6cc;strokeColor=#d79b00;" parent="tb83j11qum5MAXQGklNA-1" vertex="1">
                    <mxGeometry x="680" y="409.77" width="120" height="30.23" as="geometry"/>
                </mxCell>
                <mxCell id="6RVOOF6dNoMXqNm8IWjH-79" style="edgeStyle=none;html=1;entryX=0.5;entryY=0;entryDx=0;entryDy=0;fontFamily=Courier New;fontSize=8;fontColor=#000000;" parent="tb83j11qum5MAXQGklNA-1" source="6RVOOF6dNoMXqNm8IWjH-74" target="6RVOOF6dNoMXqNm8IWjH-78" edge="1">
                    <mxGeometry relative="1" as="geometry"/>
                </mxCell>
                <mxCell id="6RVOOF6dNoMXqNm8IWjH-74" value="Popup" style="rounded=1;whiteSpace=wrap;html=1;fillColor=#eeeeee;strokeColor=#36393d;" parent="tb83j11qum5MAXQGklNA-1" vertex="1">
                    <mxGeometry x="840" y="409.77" width="120" height="30.23" as="geometry"/>
                </mxCell>
                <mxCell id="6RVOOF6dNoMXqNm8IWjH-78" value="Input" style="rounded=1;whiteSpace=wrap;html=1;fillColor=#ffe6cc;strokeColor=#d79b00;" parent="tb83j11qum5MAXQGklNA-1" vertex="1">
                    <mxGeometry x="840" y="469.77" width="120" height="30.23" as="geometry"/>
                </mxCell>
                <mxCell id="4Dq3Pve9boTTn6wf6WD--75" value="A..Z – focusable" style="rounded=0;whiteSpace=wrap;html=1;labelBorderColor=none;fontSize=10;strokeColor=none;fillColor=none;" parent="tb83j11qum5MAXQGklNA-1" vertex="1">
                    <mxGeometry x="1280" y="10" width="100" height="20" as="geometry"/>
                </mxCell>
                <mxCell id="4Dq3Pve9boTTn6wf6WD--86" style="edgeStyle=none;html=1;entryX=0;entryY=0.5;entryDx=0;entryDy=0;fontSize=10;" parent="tb83j11qum5MAXQGklNA-1" target="4Dq3Pve9boTTn6wf6WD--84" edge="1">
                    <mxGeometry relative="1" as="geometry">
                        <mxPoint x="1280" y="260" as="sourcePoint"/>
                    </mxGeometry>
                </mxCell>
                <mxCell id="4Dq3Pve9boTTn6wf6WD--84" value="focus out for &lt;b&gt;X&lt;/b&gt;" style="rounded=1;whiteSpace=wrap;html=1;labelBorderColor=none;fontSize=10;strokeColor=#6c8ebf;fillColor=#dae8fc;arcSize=20;absoluteArcSize=1;" parent="tb83j11qum5MAXQGklNA-1" vertex="1">
                    <mxGeometry x="1400" y="249.99999999999997" width="100" height="20" as="geometry"/>
                </mxCell>
                <mxCell id="4Dq3Pve9boTTn6wf6WD--85" value="window (&lt;b&gt;W&lt;/b&gt;) has lost focus" style="rounded=0;whiteSpace=wrap;html=1;labelBorderColor=none;fontSize=10;strokeColor=none;fillColor=none;" parent="tb83j11qum5MAXQGklNA-1" vertex="1">
                    <mxGeometry x="1280" y="230" width="120" height="20" as="geometry"/>
                </mxCell>
                <mxCell id="4Dq3Pve9boTTn6wf6WD--87" value="pointer down in &lt;b&gt;W&lt;/b&gt;" style="rounded=0;whiteSpace=wrap;html=1;labelBorderColor=none;fontSize=10;strokeColor=none;fillColor=none;" parent="tb83j11qum5MAXQGklNA-1" vertex="1">
                    <mxGeometry x="1280" y="270" width="100" height="20" as="geometry"/>
                </mxCell>
                <mxCell id="4Dq3Pve9boTTn6wf6WD--88" style="edgeStyle=none;html=1;entryX=0;entryY=0.5;entryDx=0;entryDy=0;fontSize=10;" parent="tb83j11qum5MAXQGklNA-1" target="4Dq3Pve9boTTn6wf6WD--89" edge="1">
                    <mxGeometry relative="1" as="geometry">
                        <mxPoint x="1279.9999999999998" y="300" as="sourcePoint"/>
                    </mxGeometry>
                </mxCell>
                <mxCell id="4Dq3Pve9boTTn6wf6WD--93" style="edgeStyle=none;html=1;entryX=0;entryY=0.5;entryDx=0;entryDy=0;fontSize=10;exitX=1;exitY=0.5;exitDx=0;exitDy=0;" parent="tb83j11qum5MAXQGklNA-1" source="4Dq3Pve9boTTn6wf6WD--89" target="4Dq3Pve9boTTn6wf6WD--92" edge="1">
                    <mxGeometry relative="1" as="geometry">
                        <mxPoint x="1520" y="300.0000000000001" as="sourcePoint"/>
                    </mxGeometry>
                </mxCell>
                <mxCell id="4Dq3Pve9boTTn6wf6WD--89" value="focus in for &lt;b&gt;X&lt;/b&gt;" style="rounded=1;whiteSpace=wrap;html=1;labelBorderColor=none;fontSize=10;strokeColor=#6c8ebf;fillColor=#dae8fc;arcSize=20;absoluteArcSize=1;" parent="tb83j11qum5MAXQGklNA-1" vertex="1">
                    <mxGeometry x="1400" y="290" width="100" height="20" as="geometry"/>
                </mxCell>
                <mxCell id="4Dq3Pve9boTTn6wf6WD--91" style="edgeStyle=none;html=1;fontSize=10;exitX=0.5;exitY=1;exitDx=0;exitDy=0;endArrow=none;endFill=0;" parent="tb83j11qum5MAXQGklNA-1" source="4Dq3Pve9boTTn6wf6WD--92" edge="1">
                    <mxGeometry relative="1" as="geometry">
                        <mxPoint x="1500" y="340" as="sourcePoint"/>
                        <mxPoint x="1590" y="430" as="targetPoint"/>
                    </mxGeometry>
                </mxCell>
                <mxCell id="4Dq3Pve9boTTn6wf6WD--92" value="pointer down" style="rounded=1;whiteSpace=wrap;html=1;labelBorderColor=none;fontSize=10;strokeColor=#6c8ebf;fillColor=#dae8fc;arcSize=20;absoluteArcSize=1;" parent="tb83j11qum5MAXQGklNA-1" vertex="1">
                    <mxGeometry x="1540" y="290" width="100" height="20" as="geometry"/>
                </mxCell>
                <mxCell id="4Dq3Pve9boTTn6wf6WD--94" style="edgeStyle=none;html=1;fontSize=10;entryX=0;entryY=0.5;entryDx=0;entryDy=0;" parent="tb83j11qum5MAXQGklNA-1" target="4Dq3Pve9boTTn6wf6WD--95" edge="1">
                    <mxGeometry relative="1" as="geometry">
                        <mxPoint x="1590" y="350" as="sourcePoint"/>
                        <mxPoint x="1580" y="440" as="targetPoint"/>
                    </mxGeometry>
                </mxCell>
                <mxCell id="4Dq3Pve9boTTn6wf6WD--95" value="focus out for &lt;b&gt;X&lt;/b&gt;" style="rounded=1;whiteSpace=wrap;html=1;labelBorderColor=none;fontSize=10;strokeColor=#6c8ebf;fillColor=#dae8fc;arcSize=20;absoluteArcSize=1;" parent="tb83j11qum5MAXQGklNA-1" vertex="1">
                    <mxGeometry x="1640" y="340" width="100" height="20" as="geometry"/>
                </mxCell>
                <mxCell id="4Dq3Pve9boTTn6wf6WD--96" value="on non-focusable" style="rounded=0;whiteSpace=wrap;html=1;labelBorderColor=none;fontSize=10;strokeColor=none;fillColor=none;align=right;spacingLeft=0;spacingRight=2;" parent="tb83j11qum5MAXQGklNA-1" vertex="1">
                    <mxGeometry x="1500" y="329.77" width="90" height="20" as="geometry"/>
                </mxCell>
                <mxCell id="4Dq3Pve9boTTn6wf6WD--97" style="edgeStyle=none;html=1;fontSize=10;entryX=0;entryY=0.5;entryDx=0;entryDy=0;" parent="tb83j11qum5MAXQGklNA-1" target="4Dq3Pve9boTTn6wf6WD--98" edge="1">
                    <mxGeometry relative="1" as="geometry">
                        <mxPoint x="1590" y="390" as="sourcePoint"/>
                        <mxPoint x="1580" y="480" as="targetPoint"/>
                    </mxGeometry>
                </mxCell>
                <mxCell id="4Dq3Pve9boTTn6wf6WD--103" style="edgeStyle=none;html=1;entryX=0;entryY=0.5;entryDx=0;entryDy=0;fontSize=10;endArrow=classic;endFill=1;" parent="tb83j11qum5MAXQGklNA-1" source="4Dq3Pve9boTTn6wf6WD--98" target="4Dq3Pve9boTTn6wf6WD--102" edge="1">
                    <mxGeometry relative="1" as="geometry"/>
                </mxCell>
                <mxCell id="4Dq3Pve9boTTn6wf6WD--98" value="focus out for &lt;b&gt;X&lt;/b&gt;" style="rounded=1;whiteSpace=wrap;html=1;labelBorderColor=none;fontSize=10;strokeColor=#6c8ebf;fillColor=#dae8fc;arcSize=20;absoluteArcSize=1;dashed=1;" parent="tb83j11qum5MAXQGklNA-1" vertex="1">
                    <mxGeometry x="1640" y="380" width="100" height="20" as="geometry"/>
                </mxCell>
                <mxCell id="4Dq3Pve9boTTn6wf6WD--99" value="on &lt;b&gt;A&lt;/b&gt;" style="rounded=0;whiteSpace=wrap;html=1;labelBorderColor=none;fontSize=10;strokeColor=none;fillColor=none;align=right;spacingLeft=0;spacingRight=2;" parent="tb83j11qum5MAXQGklNA-1" vertex="1">
                    <mxGeometry x="1500" y="369.77" width="90" height="20" as="geometry"/>
                </mxCell>
                <mxCell id="4Dq3Pve9boTTn6wf6WD--100" style="edgeStyle=none;html=1;fontSize=10;exitX=1;exitY=1;exitDx=0;exitDy=0;" parent="tb83j11qum5MAXQGklNA-1" source="4Dq3Pve9boTTn6wf6WD--101" edge="1">
                    <mxGeometry relative="1" as="geometry">
                        <mxPoint x="1590" y="430" as="sourcePoint"/>
                        <mxPoint x="1640" y="430" as="targetPoint"/>
                    </mxGeometry>
                </mxCell>
                <mxCell id="4Dq3Pve9boTTn6wf6WD--101" value="on &lt;b&gt;X&lt;/b&gt;" style="rounded=0;whiteSpace=wrap;html=1;labelBorderColor=none;fontSize=10;strokeColor=none;fillColor=none;align=right;spacingLeft=0;spacingRight=2;" parent="tb83j11qum5MAXQGklNA-1" vertex="1">
                    <mxGeometry x="1500" y="409.77" width="90" height="20" as="geometry"/>
                </mxCell>
                <mxCell id="4Dq3Pve9boTTn6wf6WD--102" value="focus in for &lt;b&gt;A&lt;/b&gt;" style="rounded=1;whiteSpace=wrap;html=1;labelBorderColor=none;fontSize=10;strokeColor=#6c8ebf;fillColor=#dae8fc;arcSize=20;absoluteArcSize=1;" parent="tb83j11qum5MAXQGklNA-1" vertex="1">
                    <mxGeometry x="1780" y="380" width="100" height="20" as="geometry"/>
                </mxCell>
                <mxCell id="4Dq3Pve9boTTn6wf6WD--104" value="1:" style="rounded=0;whiteSpace=wrap;html=1;labelBorderColor=none;fontSize=10;strokeColor=none;fillColor=none;spacingBottom=4;" parent="tb83j11qum5MAXQGklNA-1" vertex="1">
                    <mxGeometry x="1260" y="240" width="20" height="40" as="geometry"/>
                </mxCell>
                <mxCell id="4Dq3Pve9boTTn6wf6WD--105" value="2:" style="rounded=0;whiteSpace=wrap;html=1;labelBorderColor=none;fontSize=10;strokeColor=none;fillColor=none;spacingBottom=4;" parent="tb83j11qum5MAXQGklNA-1" vertex="1">
                    <mxGeometry x="1260" y="280" width="20" height="40" as="geometry"/>
                </mxCell>
                <mxCell id="4Dq3Pve9boTTn6wf6WD--106" value="body" style="rounded=0;whiteSpace=wrap;html=1;labelBorderColor=none;fontSize=10;strokeColor=default;fontStyle=2" parent="tb83j11qum5MAXQGklNA-1" vertex="1">
                    <mxGeometry x="1380" y="60" width="70" height="20" as="geometry"/>
                </mxCell>
                <mxCell id="4Dq3Pve9boTTn6wf6WD--107" value="non-focusable" style="rounded=0;whiteSpace=wrap;html=1;labelBorderColor=none;fontSize=10;strokeColor=default;" parent="tb83j11qum5MAXQGklNA-1" vertex="1">
                    <mxGeometry x="1450" y="60" width="70" height="20" as="geometry"/>
                </mxCell>
                <mxCell id="4Dq3Pve9boTTn6wf6WD--111" value="active" style="rounded=0;whiteSpace=wrap;html=1;labelBorderColor=none;fontSize=10;strokeColor=#6c8ebf;fontStyle=1;fillColor=#dae8fc;" parent="tb83j11qum5MAXQGklNA-1" vertex="1">
                    <mxGeometry x="1380" y="40" width="70" height="20" as="geometry"/>
                </mxCell>
                <mxCell id="4Dq3Pve9boTTn6wf6WD--112" value="target" style="rounded=0;whiteSpace=wrap;html=1;labelBorderColor=none;fontSize=10;strokeColor=#6c8ebf;fontStyle=1;fillColor=#dae8fc;" parent="tb83j11qum5MAXQGklNA-1" vertex="1">
                    <mxGeometry x="1450" y="40" width="70" height="20" as="geometry"/>
                </mxCell>
                <mxCell id="4Dq3Pve9boTTn6wf6WD--116" value="body" style="rounded=0;whiteSpace=wrap;html=1;labelBorderColor=none;fontSize=10;strokeColor=default;fontStyle=2" parent="tb83j11qum5MAXQGklNA-1" vertex="1">
                    <mxGeometry x="1380" y="80" width="70" height="20" as="geometry"/>
                </mxCell>
                <mxCell id="4Dq3Pve9boTTn6wf6WD--117" value="A" style="rounded=0;whiteSpace=wrap;html=1;labelBorderColor=none;fontSize=10;strokeColor=default;" parent="tb83j11qum5MAXQGklNA-1" vertex="1">
                    <mxGeometry x="1450" y="80" width="70" height="20" as="geometry"/>
                </mxCell>
                <mxCell id="4Dq3Pve9boTTn6wf6WD--121" value="A" style="rounded=0;whiteSpace=wrap;html=1;labelBorderColor=none;fontSize=10;strokeColor=default;" parent="tb83j11qum5MAXQGklNA-1" vertex="1">
                    <mxGeometry x="1380" y="100" width="70" height="20" as="geometry"/>
                </mxCell>
                <mxCell id="4Dq3Pve9boTTn6wf6WD--122" value="A" style="rounded=0;whiteSpace=wrap;html=1;labelBorderColor=none;fontSize=10;strokeColor=default;" parent="tb83j11qum5MAXQGklNA-1" vertex="1">
                    <mxGeometry x="1450" y="100" width="70" height="20" as="geometry"/>
                </mxCell>
                <mxCell id="4Dq3Pve9boTTn6wf6WD--126" value="A" style="rounded=0;whiteSpace=wrap;html=1;labelBorderColor=none;fontSize=10;strokeColor=default;" parent="tb83j11qum5MAXQGklNA-1" vertex="1">
                    <mxGeometry x="1380" y="120" width="70" height="20" as="geometry"/>
                </mxCell>
                <mxCell id="4Dq3Pve9boTTn6wf6WD--127" value="B" style="rounded=0;whiteSpace=wrap;html=1;labelBorderColor=none;fontSize=10;strokeColor=default;" parent="tb83j11qum5MAXQGklNA-1" vertex="1">
                    <mxGeometry x="1450" y="120" width="70" height="20" as="geometry"/>
                </mxCell>
                <mxCell id="4Dq3Pve9boTTn6wf6WD--131" value="A" style="rounded=0;whiteSpace=wrap;html=1;labelBorderColor=none;fontSize=10;strokeColor=default;" parent="tb83j11qum5MAXQGklNA-1" vertex="1">
                    <mxGeometry x="1380" y="150" width="70" height="20" as="geometry"/>
                </mxCell>
                <mxCell id="4Dq3Pve9boTTn6wf6WD--132" value="non-focusable" style="rounded=0;whiteSpace=wrap;html=1;labelBorderColor=none;fontSize=10;strokeColor=default;" parent="tb83j11qum5MAXQGklNA-1" vertex="1">
                    <mxGeometry x="1450" y="150" width="70" height="20" as="geometry"/>
                </mxCell>
                <mxCell id="4Dq3Pve9boTTn6wf6WD--137" value="ptr down" style="rounded=0;whiteSpace=wrap;html=1;labelBorderColor=none;fontSize=10;strokeColor=default;fontStyle=0" parent="tb83j11qum5MAXQGklNA-1" vertex="1">
                    <mxGeometry x="1280" y="60" width="100" height="20" as="geometry"/>
                </mxCell>
                <mxCell id="4Dq3Pve9boTTn6wf6WD--138" value="ptr down/tab/focus()" style="rounded=0;whiteSpace=wrap;html=1;labelBorderColor=none;fontSize=10;strokeColor=default;fontStyle=0" parent="tb83j11qum5MAXQGklNA-1" vertex="1">
                    <mxGeometry x="1280" y="80" width="100" height="20" as="geometry"/>
                </mxCell>
                <mxCell id="4Dq3Pve9boTTn6wf6WD--139" value="ptr down/focus()" style="rounded=0;whiteSpace=wrap;html=1;labelBorderColor=none;fontSize=10;strokeColor=default;" parent="tb83j11qum5MAXQGklNA-1" vertex="1">
                    <mxGeometry x="1280" y="100" width="100" height="20" as="geometry"/>
                </mxCell>
                <mxCell id="4Dq3Pve9boTTn6wf6WD--136" value="initiator" style="rounded=0;whiteSpace=wrap;html=1;labelBorderColor=none;fontSize=10;strokeColor=#6c8ebf;fontStyle=1;fillColor=#dae8fc;" parent="tb83j11qum5MAXQGklNA-1" vertex="1">
                    <mxGeometry x="1280" y="40" width="100" height="20" as="geometry"/>
                </mxCell>
                <mxCell id="4Dq3Pve9boTTn6wf6WD--152" value="ptr down/tab/focus()" style="rounded=0;whiteSpace=wrap;html=1;labelBorderColor=none;fontSize=10;strokeColor=default;" parent="tb83j11qum5MAXQGklNA-1" vertex="1">
                    <mxGeometry x="1280" y="120" width="100" height="20" as="geometry"/>
                </mxCell>
                <mxCell id="4Dq3Pve9boTTn6wf6WD--153" value="ptr down" style="rounded=0;whiteSpace=wrap;html=1;labelBorderColor=none;fontSize=10;strokeColor=default;fontStyle=0" parent="tb83j11qum5MAXQGklNA-1" vertex="1">
                    <mxGeometry x="1280" y="150" width="100" height="20" as="geometry"/>
                </mxCell>
                <mxCell id="4Dq3Pve9boTTn6wf6WD--154" value="pd" style="rounded=0;whiteSpace=wrap;html=1;labelBorderColor=none;fontSize=10;strokeColor=default;" parent="tb83j11qum5MAXQGklNA-1" vertex="1">
                    <mxGeometry x="1750" y="60" width="90" height="20" as="geometry"/>
                </mxCell>
                <mxCell id="4Dq3Pve9boTTn6wf6WD--155" value="events" style="rounded=0;whiteSpace=wrap;html=1;labelBorderColor=none;fontSize=10;strokeColor=#6c8ebf;fontStyle=1;fillColor=#dae8fc;" parent="tb83j11qum5MAXQGklNA-1" vertex="1">
                    <mxGeometry x="1750" y="40" width="90" height="20" as="geometry"/>
                </mxCell>
                <mxCell id="4Dq3Pve9boTTn6wf6WD--156" value="pd -&amp;gt; fi / kd -&amp;gt; fi / fi" style="rounded=0;whiteSpace=wrap;html=1;labelBorderColor=none;fontSize=10;strokeColor=default;" parent="tb83j11qum5MAXQGklNA-1" vertex="1">
                    <mxGeometry x="1750" y="80" width="90" height="20" as="geometry"/>
                </mxCell>
                <mxCell id="4Dq3Pve9boTTn6wf6WD--157" value="pd" style="rounded=0;whiteSpace=wrap;html=1;labelBorderColor=none;fontSize=10;strokeColor=default;" parent="tb83j11qum5MAXQGklNA-1" vertex="1">
                    <mxGeometry x="1750" y="100" width="90" height="20" as="geometry"/>
                </mxCell>
                <mxCell id="4Dq3Pve9boTTn6wf6WD--158" value="[{pd, kd} -&amp;gt;] fo -&amp;gt; fi" style="rounded=0;whiteSpace=wrap;html=1;labelBorderColor=none;fontSize=10;strokeColor=default;" parent="tb83j11qum5MAXQGklNA-1" vertex="1">
                    <mxGeometry x="1750" y="120" width="90" height="20" as="geometry"/>
                </mxCell>
                <mxCell id="4Dq3Pve9boTTn6wf6WD--159" value="pd -&amp;gt; fo" style="rounded=0;whiteSpace=wrap;html=1;labelBorderColor=none;fontSize=10;strokeColor=default;" parent="tb83j11qum5MAXQGklNA-1" vertex="1">
                    <mxGeometry x="1750" y="150" width="90" height="20" as="geometry"/>
                </mxCell>
                <mxCell id="4Dq3Pve9boTTn6wf6WD--108" value="body" style="rounded=0;whiteSpace=wrap;html=1;labelBorderColor=none;fontSize=10;strokeColor=default;fontStyle=2" parent="tb83j11qum5MAXQGklNA-1" vertex="1">
                    <mxGeometry x="1520" y="60" width="70" height="20" as="geometry"/>
                </mxCell>
                <mxCell id="4Dq3Pve9boTTn6wf6WD--113" value="new active" style="rounded=0;whiteSpace=wrap;html=1;labelBorderColor=none;fontSize=10;strokeColor=#6c8ebf;fontStyle=1;fillColor=#dae8fc;" parent="tb83j11qum5MAXQGklNA-1" vertex="1">
                    <mxGeometry x="1520" y="40" width="70" height="20" as="geometry"/>
                </mxCell>
                <mxCell id="4Dq3Pve9boTTn6wf6WD--118" value="A" style="rounded=0;whiteSpace=wrap;html=1;labelBorderColor=none;fontSize=10;strokeColor=default;" parent="tb83j11qum5MAXQGklNA-1" vertex="1">
                    <mxGeometry x="1520" y="80" width="70" height="20" as="geometry"/>
                </mxCell>
                <mxCell id="4Dq3Pve9boTTn6wf6WD--123" value="A" style="rounded=0;whiteSpace=wrap;html=1;labelBorderColor=none;fontSize=10;strokeColor=default;" parent="tb83j11qum5MAXQGklNA-1" vertex="1">
                    <mxGeometry x="1520" y="100" width="70" height="20" as="geometry"/>
                </mxCell>
                <mxCell id="4Dq3Pve9boTTn6wf6WD--128" value="B" style="rounded=0;whiteSpace=wrap;html=1;labelBorderColor=none;fontSize=10;strokeColor=default;" parent="tb83j11qum5MAXQGklNA-1" vertex="1">
                    <mxGeometry x="1520" y="120" width="70" height="20" as="geometry"/>
                </mxCell>
                <mxCell id="4Dq3Pve9boTTn6wf6WD--133" value="body" style="rounded=0;whiteSpace=wrap;html=1;labelBorderColor=none;fontSize=10;strokeColor=default;fontStyle=2" parent="tb83j11qum5MAXQGklNA-1" vertex="1">
                    <mxGeometry x="1520" y="150" width="70" height="20" as="geometry"/>
                </mxCell>
                <mxCell id="4Dq3Pve9boTTn6wf6WD--109" value="-" style="rounded=0;whiteSpace=wrap;html=1;labelBorderColor=none;fontSize=10;strokeColor=#d6b656;fillColor=#fff2cc;" parent="tb83j11qum5MAXQGklNA-1" vertex="1">
                    <mxGeometry x="1590" y="60" width="50" height="20" as="geometry"/>
                </mxCell>
                <mxCell id="4Dq3Pve9boTTn6wf6WD--110" value="-" style="rounded=0;whiteSpace=wrap;html=1;labelBorderColor=none;fontSize=10;strokeColor=#d6b656;fillColor=#fff2cc;" parent="tb83j11qum5MAXQGklNA-1" vertex="1">
                    <mxGeometry x="1640" y="60" width="50" height="20" as="geometry"/>
                </mxCell>
                <mxCell id="4Dq3Pve9boTTn6wf6WD--114" value="focus in" style="rounded=0;whiteSpace=wrap;html=1;labelBorderColor=none;fontSize=10;strokeColor=#d6b656;fontStyle=1;fillColor=#fff2cc;" parent="tb83j11qum5MAXQGklNA-1" vertex="1">
                    <mxGeometry x="1590" y="40" width="50" height="20" as="geometry"/>
                </mxCell>
                <mxCell id="4Dq3Pve9boTTn6wf6WD--115" value="focus out" style="rounded=0;whiteSpace=wrap;html=1;labelBorderColor=none;fontSize=10;strokeColor=#d6b656;fontStyle=1;fillColor=#fff2cc;" parent="tb83j11qum5MAXQGklNA-1" vertex="1">
                    <mxGeometry x="1640" y="40" width="50" height="20" as="geometry"/>
                </mxCell>
                <mxCell id="4Dq3Pve9boTTn6wf6WD--119" value="for A" style="rounded=0;whiteSpace=wrap;html=1;labelBorderColor=none;fontSize=10;strokeColor=#d6b656;fillColor=#fff2cc;" parent="tb83j11qum5MAXQGklNA-1" vertex="1">
                    <mxGeometry x="1590" y="80" width="50" height="20" as="geometry"/>
                </mxCell>
                <mxCell id="4Dq3Pve9boTTn6wf6WD--120" value="-" style="rounded=0;whiteSpace=wrap;html=1;labelBorderColor=none;fontSize=10;strokeColor=#d6b656;fillColor=#fff2cc;" parent="tb83j11qum5MAXQGklNA-1" vertex="1">
                    <mxGeometry x="1640" y="80" width="50" height="20" as="geometry"/>
                </mxCell>
                <mxCell id="4Dq3Pve9boTTn6wf6WD--124" value="-" style="rounded=0;whiteSpace=wrap;html=1;labelBorderColor=none;fontSize=10;strokeColor=#d6b656;fillColor=#fff2cc;" parent="tb83j11qum5MAXQGklNA-1" vertex="1">
                    <mxGeometry x="1590" y="100" width="50" height="20" as="geometry"/>
                </mxCell>
                <mxCell id="4Dq3Pve9boTTn6wf6WD--125" value="-" style="rounded=0;whiteSpace=wrap;html=1;labelBorderColor=none;fontSize=10;strokeColor=#d6b656;fillColor=#fff2cc;" parent="tb83j11qum5MAXQGklNA-1" vertex="1">
                    <mxGeometry x="1640" y="100" width="50" height="20" as="geometry"/>
                </mxCell>
                <mxCell id="4Dq3Pve9boTTn6wf6WD--129" value="2: for B" style="rounded=0;whiteSpace=wrap;html=1;labelBorderColor=none;fontSize=10;strokeColor=#d6b656;fillColor=#fff2cc;" parent="tb83j11qum5MAXQGklNA-1" vertex="1">
                    <mxGeometry x="1590" y="120" width="50" height="20" as="geometry"/>
                </mxCell>
                <mxCell id="4Dq3Pve9boTTn6wf6WD--130" value="1: for A" style="rounded=0;whiteSpace=wrap;html=1;labelBorderColor=none;fontSize=10;strokeColor=#d6b656;fillColor=#fff2cc;" parent="tb83j11qum5MAXQGklNA-1" vertex="1">
                    <mxGeometry x="1640" y="120" width="50" height="20" as="geometry"/>
                </mxCell>
                <mxCell id="4Dq3Pve9boTTn6wf6WD--134" value="-" style="rounded=0;whiteSpace=wrap;html=1;labelBorderColor=none;fontSize=10;strokeColor=#d6b656;fillColor=#fff2cc;" parent="tb83j11qum5MAXQGklNA-1" vertex="1">
                    <mxGeometry x="1590" y="150" width="50" height="20" as="geometry"/>
                </mxCell>
                <mxCell id="4Dq3Pve9boTTn6wf6WD--135" value="for A" style="rounded=0;whiteSpace=wrap;html=1;labelBorderColor=none;fontSize=10;strokeColor=#d6b656;fillColor=#fff2cc;" parent="tb83j11qum5MAXQGklNA-1" vertex="1">
                    <mxGeometry x="1640" y="150" width="50" height="20" as="geometry"/>
                </mxCell>
                <mxCell id="4Dq3Pve9boTTn6wf6WD--160" value="1" style="ellipse;whiteSpace=wrap;html=1;aspect=fixed;fillColor=#1ba1e2;strokeColor=#006EAF;fontColor=#ffffff;fontSize=8;" parent="tb83j11qum5MAXQGklNA-1" vertex="1">
                    <mxGeometry x="363" y="292.77" width="10" height="10" as="geometry"/>
                </mxCell>
                <mxCell id="4Dq3Pve9boTTn6wf6WD--168" value="A" style="rounded=0;whiteSpace=wrap;html=1;labelBorderColor=none;fontSize=10;strokeColor=default;" parent="tb83j11qum5MAXQGklNA-1" vertex="1">
                    <mxGeometry x="1380" y="170" width="70" height="20" as="geometry"/>
                </mxCell>
                <mxCell id="4Dq3Pve9boTTn6wf6WD--169" value="A" style="rounded=0;whiteSpace=wrap;html=1;labelBorderColor=none;fontSize=10;strokeColor=default;" parent="tb83j11qum5MAXQGklNA-1" vertex="1">
                    <mxGeometry x="1450" y="170" width="70" height="20" as="geometry"/>
                </mxCell>
                <mxCell id="4Dq3Pve9boTTn6wf6WD--170" value="blur()" style="rounded=0;whiteSpace=wrap;html=1;labelBorderColor=none;fontSize=10;strokeColor=default;fontStyle=0" parent="tb83j11qum5MAXQGklNA-1" vertex="1">
                    <mxGeometry x="1280" y="170" width="100" height="20" as="geometry"/>
                </mxCell>
                <mxCell id="4Dq3Pve9boTTn6wf6WD--171" value="fo [-&amp;gt; fi]" style="rounded=0;whiteSpace=wrap;html=1;labelBorderColor=none;fontSize=10;strokeColor=default;" parent="tb83j11qum5MAXQGklNA-1" vertex="1">
                    <mxGeometry x="1750" y="170" width="90" height="20" as="geometry"/>
                </mxCell>
                <mxCell id="4Dq3Pve9boTTn6wf6WD--172" value="body &lt;span style=&quot;font-style: normal&quot;&gt;/&lt;/span&gt;&amp;nbsp;&lt;span style=&quot;font-style: normal&quot;&gt;B&lt;/span&gt;" style="rounded=0;whiteSpace=wrap;html=1;labelBorderColor=none;fontSize=10;strokeColor=default;fontStyle=2" parent="tb83j11qum5MAXQGklNA-1" vertex="1">
                    <mxGeometry x="1520" y="170" width="70" height="20" as="geometry"/>
                </mxCell>
                <mxCell id="4Dq3Pve9boTTn6wf6WD--173" value="- / for B" style="rounded=0;whiteSpace=wrap;html=1;labelBorderColor=none;fontSize=10;strokeColor=#d6b656;fillColor=#fff2cc;" parent="tb83j11qum5MAXQGklNA-1" vertex="1">
                    <mxGeometry x="1590" y="170" width="50" height="20" as="geometry"/>
                </mxCell>
                <mxCell id="4Dq3Pve9boTTn6wf6WD--174" value="for A" style="rounded=0;whiteSpace=wrap;html=1;labelBorderColor=none;fontSize=10;strokeColor=#d6b656;fillColor=#fff2cc;" parent="tb83j11qum5MAXQGklNA-1" vertex="1">
                    <mxGeometry x="1640" y="170" width="50" height="20" as="geometry"/>
                </mxCell>
                <mxCell id="4Dq3Pve9boTTn6wf6WD--175" value="4" style="ellipse;whiteSpace=wrap;html=1;aspect=fixed;fillColor=#1ba1e2;strokeColor=#006EAF;fontColor=#ffffff;fontSize=8;" parent="tb83j11qum5MAXQGklNA-1" vertex="1">
                    <mxGeometry x="683" y="412.77" width="10" height="10" as="geometry"/>
                </mxCell>
                <mxCell id="4Dq3Pve9boTTn6wf6WD--184" value="" style="rounded=0;whiteSpace=wrap;html=1;labelBorderColor=none;fontSize=10;strokeColor=#6c8ebf;fontStyle=1;fillColor=#dae8fc;" parent="tb83j11qum5MAXQGklNA-1" vertex="1">
                    <mxGeometry x="1840" y="40" width="20" height="20" as="geometry"/>
                </mxCell>
                <mxCell id="4Dq3Pve9boTTn6wf6WD--185" value="-" style="rounded=0;whiteSpace=wrap;html=1;labelBorderColor=none;fontSize=10;strokeColor=default;" parent="tb83j11qum5MAXQGklNA-1" vertex="1">
                    <mxGeometry x="1840" y="60" width="20" height="20" as="geometry"/>
                </mxCell>
                <mxCell id="4Dq3Pve9boTTn6wf6WD--186" value="+" style="rounded=0;whiteSpace=wrap;html=1;labelBorderColor=none;fontSize=10;strokeColor=default;" parent="tb83j11qum5MAXQGklNA-1" vertex="1">
                    <mxGeometry x="1840" y="80" width="20" height="20" as="geometry"/>
                </mxCell>
                <mxCell id="4Dq3Pve9boTTn6wf6WD--187" value="+" style="rounded=0;whiteSpace=wrap;html=1;labelBorderColor=none;fontSize=10;strokeColor=default;" parent="tb83j11qum5MAXQGklNA-1" vertex="1">
                    <mxGeometry x="1840" y="100" width="20" height="20" as="geometry"/>
                </mxCell>
                <mxCell id="4Dq3Pve9boTTn6wf6WD--188" value="+" style="rounded=0;whiteSpace=wrap;html=1;labelBorderColor=none;fontSize=10;strokeColor=default;" parent="tb83j11qum5MAXQGklNA-1" vertex="1">
                    <mxGeometry x="1840" y="120" width="20" height="20" as="geometry"/>
                </mxCell>
                <mxCell id="4Dq3Pve9boTTn6wf6WD--189" value="+" style="rounded=0;whiteSpace=wrap;html=1;labelBorderColor=none;fontSize=10;strokeColor=default;" parent="tb83j11qum5MAXQGklNA-1" vertex="1">
                    <mxGeometry x="1840" y="150" width="20" height="20" as="geometry"/>
                </mxCell>
                <mxCell id="4Dq3Pve9boTTn6wf6WD--191" value="+" style="rounded=0;whiteSpace=wrap;html=1;labelBorderColor=none;fontSize=10;strokeColor=default;" parent="tb83j11qum5MAXQGklNA-1" vertex="1">
                    <mxGeometry x="1840" y="170" width="20" height="20" as="geometry"/>
                </mxCell>
                <mxCell id="4Dq3Pve9boTTn6wf6WD--192" value="activeData = &lt;b&gt;(dataForSensor.focus&lt;/b&gt; of &lt;b&gt;activeElement) &lt;/b&gt;or&lt;br&gt;(&lt;b style=&quot;border-color: var(--border-color);&quot;&gt;dataForSensor.focus &lt;/b&gt;&lt;span style=&quot;border-color: var(--border-color);&quot;&gt;of nearest &lt;b&gt;catchChildrenFocus&lt;/b&gt;)&lt;/span&gt;" style="rounded=1;html=1;fontSize=10;fontFamily=Courier New;verticalAlign=top;" parent="tb83j11qum5MAXQGklNA-1" vertex="1">
                    <mxGeometry x="30" y="160" width="330" height="40" as="geometry"/>
                </mxCell>
                <mxCell id="4Dq3Pve9boTTn6wf6WD--193" value="s" style="rounded=0;whiteSpace=wrap;html=1;labelBorderColor=none;fontSize=10;strokeColor=#6c8ebf;fontStyle=1;fillColor=#dae8fc;" parent="tb83j11qum5MAXQGklNA-1" vertex="1">
                    <mxGeometry x="1860" y="40" width="20" height="20" as="geometry"/>
                </mxCell>
                <mxCell id="4Dq3Pve9boTTn6wf6WD--194" value="-" style="rounded=0;whiteSpace=wrap;html=1;labelBorderColor=none;fontSize=10;strokeColor=default;" parent="tb83j11qum5MAXQGklNA-1" vertex="1">
                    <mxGeometry x="1860" y="60" width="20" height="20" as="geometry"/>
                </mxCell>
                <mxCell id="4Dq3Pve9boTTn6wf6WD--195" value="1" style="rounded=0;whiteSpace=wrap;html=1;labelBorderColor=none;fontSize=10;strokeColor=default;" parent="tb83j11qum5MAXQGklNA-1" vertex="1">
                    <mxGeometry x="1860" y="80" width="20" height="20" as="geometry"/>
                </mxCell>
                <mxCell id="4Dq3Pve9boTTn6wf6WD--196" value="1" style="rounded=0;whiteSpace=wrap;html=1;labelBorderColor=none;fontSize=10;strokeColor=default;" parent="tb83j11qum5MAXQGklNA-1" vertex="1">
                    <mxGeometry x="1860" y="100" width="20" height="20" as="geometry"/>
                </mxCell>
                <mxCell id="4Dq3Pve9boTTn6wf6WD--197" value="1" style="rounded=0;whiteSpace=wrap;html=1;labelBorderColor=none;fontSize=10;strokeColor=default;" parent="tb83j11qum5MAXQGklNA-1" vertex="1">
                    <mxGeometry x="1860" y="120" width="20" height="20" as="geometry"/>
                </mxCell>
                <mxCell id="4Dq3Pve9boTTn6wf6WD--198" value="2" style="rounded=0;whiteSpace=wrap;html=1;labelBorderColor=none;fontSize=10;strokeColor=default;" parent="tb83j11qum5MAXQGklNA-1" vertex="1">
                    <mxGeometry x="1860" y="150" width="20" height="20" as="geometry"/>
                </mxCell>
                <mxCell id="4Dq3Pve9boTTn6wf6WD--199" value="2" style="rounded=0;whiteSpace=wrap;html=1;labelBorderColor=none;fontSize=10;strokeColor=default;" parent="tb83j11qum5MAXQGklNA-1" vertex="1">
                    <mxGeometry x="1860" y="170" width="20" height="20" as="geometry"/>
                </mxCell>
                <mxCell id="5r1o6SuuKPM0f3jtkg2o-0" value="#" style="rounded=0;whiteSpace=wrap;html=1;labelBorderColor=none;fontSize=10;strokeColor=#6c8ebf;fontStyle=1;fillColor=#dae8fc;" parent="tb83j11qum5MAXQGklNA-1" vertex="1">
                    <mxGeometry x="1260" y="40" width="20" height="20" as="geometry"/>
                </mxCell>
                <mxCell id="5r1o6SuuKPM0f3jtkg2o-1" value="1" style="rounded=0;whiteSpace=wrap;html=1;labelBorderColor=none;fontSize=10;strokeColor=default;" parent="tb83j11qum5MAXQGklNA-1" vertex="1">
                    <mxGeometry x="1260" y="60" width="20" height="20" as="geometry"/>
                </mxCell>
                <mxCell id="5r1o6SuuKPM0f3jtkg2o-2" value="2" style="rounded=0;whiteSpace=wrap;html=1;labelBorderColor=none;fontSize=10;strokeColor=default;" parent="tb83j11qum5MAXQGklNA-1" vertex="1">
                    <mxGeometry x="1260" y="80" width="20" height="20" as="geometry"/>
                </mxCell>
                <mxCell id="5r1o6SuuKPM0f3jtkg2o-3" value="3" style="rounded=0;whiteSpace=wrap;html=1;labelBorderColor=none;fontSize=10;strokeColor=default;" parent="tb83j11qum5MAXQGklNA-1" vertex="1">
                    <mxGeometry x="1260" y="100" width="20" height="20" as="geometry"/>
                </mxCell>
                <mxCell id="5r1o6SuuKPM0f3jtkg2o-4" value="4" style="rounded=0;whiteSpace=wrap;html=1;labelBorderColor=none;fontSize=10;strokeColor=default;" parent="tb83j11qum5MAXQGklNA-1" vertex="1">
                    <mxGeometry x="1260" y="120" width="20" height="20" as="geometry"/>
                </mxCell>
                <mxCell id="5r1o6SuuKPM0f3jtkg2o-5" value="5" style="rounded=0;whiteSpace=wrap;html=1;labelBorderColor=none;fontSize=10;strokeColor=default;" parent="tb83j11qum5MAXQGklNA-1" vertex="1">
                    <mxGeometry x="1260" y="150" width="20" height="20" as="geometry"/>
                </mxCell>
                <mxCell id="5r1o6SuuKPM0f3jtkg2o-6" value="6" style="rounded=0;whiteSpace=wrap;html=1;labelBorderColor=none;fontSize=10;strokeColor=default;" parent="tb83j11qum5MAXQGklNA-1" vertex="1">
                    <mxGeometry x="1260" y="170" width="20" height="20" as="geometry"/>
                </mxCell>
                <mxCell id="_sVZHDXnET4e-m4okmwY-0" value="4" style="ellipse;whiteSpace=wrap;html=1;aspect=fixed;fillColor=#d80073;strokeColor=#A50040;fontColor=#ffffff;fontSize=8;" parent="tb83j11qum5MAXQGklNA-1" vertex="1">
                    <mxGeometry x="683" y="426.77" width="10" height="10" as="geometry"/>
                </mxCell>
                <mxCell id="_sVZHDXnET4e-m4okmwY-1" value="4" style="ellipse;whiteSpace=wrap;html=1;aspect=fixed;fillColor=#1ba1e2;strokeColor=#006EAF;fontColor=#ffffff;fontSize=8;" parent="tb83j11qum5MAXQGklNA-1" vertex="1">
                    <mxGeometry x="683" y="353" width="10" height="10" as="geometry"/>
                </mxCell>
                <mxCell id="_sVZHDXnET4e-m4okmwY-2" value="-" style="rounded=0;whiteSpace=wrap;html=1;labelBorderColor=none;fontSize=10;strokeColor=default;" parent="tb83j11qum5MAXQGklNA-1" vertex="1">
                    <mxGeometry x="1690" y="60" width="60" height="20" as="geometry"/>
                </mxCell>
                <mxCell id="_sVZHDXnET4e-m4okmwY-3" value="data for A" style="rounded=0;whiteSpace=wrap;html=1;labelBorderColor=none;fontSize=10;strokeColor=#6c8ebf;fontStyle=1;fillColor=#dae8fc;" parent="tb83j11qum5MAXQGklNA-1" vertex="1">
                    <mxGeometry x="1690" y="40" width="60" height="20" as="geometry"/>
                </mxCell>
                <mxCell id="_sVZHDXnET4e-m4okmwY-4" value="-" style="rounded=0;whiteSpace=wrap;html=1;labelBorderColor=none;fontSize=10;strokeColor=default;" parent="tb83j11qum5MAXQGklNA-1" vertex="1">
                    <mxGeometry x="1690" y="80" width="60" height="20" as="geometry"/>
                </mxCell>
                <mxCell id="_sVZHDXnET4e-m4okmwY-5" value="-" style="rounded=0;whiteSpace=wrap;html=1;labelBorderColor=none;fontSize=10;strokeColor=default;" parent="tb83j11qum5MAXQGklNA-1" vertex="1">
                    <mxGeometry x="1690" y="100" width="60" height="20" as="geometry"/>
                </mxCell>
                <mxCell id="_sVZHDXnET4e-m4okmwY-6" value="-" style="rounded=0;whiteSpace=wrap;html=1;labelBorderColor=none;fontSize=10;strokeColor=default;" parent="tb83j11qum5MAXQGklNA-1" vertex="1">
                    <mxGeometry x="1690" y="120" width="60" height="20" as="geometry"/>
                </mxCell>
                <mxCell id="_sVZHDXnET4e-m4okmwY-7" value="ignored" style="rounded=0;whiteSpace=wrap;html=1;labelBorderColor=none;fontSize=10;strokeColor=default;" parent="tb83j11qum5MAXQGklNA-1" vertex="1">
                    <mxGeometry x="1690" y="150" width="60" height="20" as="geometry"/>
                </mxCell>
                <mxCell id="_sVZHDXnET4e-m4okmwY-8" value="ignored / -" style="rounded=0;whiteSpace=wrap;html=1;labelBorderColor=none;fontSize=10;strokeColor=default;" parent="tb83j11qum5MAXQGklNA-1" vertex="1">
                    <mxGeometry x="1690" y="170" width="60" height="20" as="geometry"/>
                </mxCell>
                <mxCell id="3oL66JDY5k0KGZfWDgL4-0" value="View:&lt;br&gt;e.dataForSensor.context = model" style="rounded=1;whiteSpace=wrap;html=1;fontFamily=Courier New;fontSize=10;fillColor=none;strokeColor=#2D7600;align=left;spacingLeft=16;fontColor=#000000;" parent="tb83j11qum5MAXQGklNA-1" vertex="1">
                    <mxGeometry x="110" y="120" width="310" height="30" as="geometry"/>
                </mxCell>
                <mxCell id="3oL66JDY5k0KGZfWDgL4-1" value="" style="ellipse;whiteSpace=wrap;html=1;aspect=fixed;fillColor=#60a917;strokeColor=#2D7600;fontColor=#ffffff;fontSize=8;" parent="tb83j11qum5MAXQGklNA-1" vertex="1">
                    <mxGeometry x="114" y="124" width="10" height="10" as="geometry"/>
                </mxCell>
                <mxCell id="3oL66JDY5k0KGZfWDgL4-2" value="1" style="ellipse;whiteSpace=wrap;html=1;aspect=fixed;fillColor=#60a917;strokeColor=#2D7600;fontColor=#ffffff;fontSize=8;" parent="tb83j11qum5MAXQGklNA-1" vertex="1">
                    <mxGeometry x="547" y="173" width="10" height="10" as="geometry"/>
                </mxCell>
                <mxCell id="3oL66JDY5k0KGZfWDgL4-3" value="2" style="ellipse;whiteSpace=wrap;html=1;aspect=fixed;fillColor=#60a917;strokeColor=#2D7600;fontColor=#ffffff;fontSize=8;" parent="tb83j11qum5MAXQGklNA-1" vertex="1">
                    <mxGeometry x="787" y="353" width="10" height="10" as="geometry"/>
                </mxCell>
                <mxCell id="3oL66JDY5k0KGZfWDgL4-5" value="A" style="rounded=0;whiteSpace=wrap;html=1;labelBorderColor=none;fontSize=10;strokeColor=default;" parent="tb83j11qum5MAXQGklNA-1" vertex="1">
                    <mxGeometry x="1380" y="190" width="70" height="20" as="geometry"/>
                </mxCell>
                <mxCell id="3oL66JDY5k0KGZfWDgL4-6" value="A" style="rounded=0;whiteSpace=wrap;html=1;labelBorderColor=none;fontSize=10;strokeColor=default;" parent="tb83j11qum5MAXQGklNA-1" vertex="1">
                    <mxGeometry x="1450" y="190" width="70" height="20" as="geometry"/>
                </mxCell>
                <mxCell id="3oL66JDY5k0KGZfWDgL4-7" value="window loses focus" style="rounded=0;whiteSpace=wrap;html=1;labelBorderColor=none;fontSize=10;strokeColor=default;fontStyle=0" parent="tb83j11qum5MAXQGklNA-1" vertex="1">
                    <mxGeometry x="1280" y="190" width="100" height="20" as="geometry"/>
                </mxCell>
                <mxCell id="3oL66JDY5k0KGZfWDgL4-8" value="fo" style="rounded=0;whiteSpace=wrap;html=1;labelBorderColor=none;fontSize=10;strokeColor=default;" parent="tb83j11qum5MAXQGklNA-1" vertex="1">
                    <mxGeometry x="1750" y="190" width="90" height="20" as="geometry"/>
                </mxCell>
                <mxCell id="3oL66JDY5k0KGZfWDgL4-9" value="A" style="rounded=0;whiteSpace=wrap;html=1;labelBorderColor=none;fontSize=10;strokeColor=default;fontStyle=0" parent="tb83j11qum5MAXQGklNA-1" vertex="1">
                    <mxGeometry x="1520" y="190" width="70" height="20" as="geometry"/>
                </mxCell>
                <mxCell id="3oL66JDY5k0KGZfWDgL4-10" value="-" style="rounded=0;whiteSpace=wrap;html=1;labelBorderColor=none;fontSize=10;strokeColor=#d6b656;fillColor=#fff2cc;" parent="tb83j11qum5MAXQGklNA-1" vertex="1">
                    <mxGeometry x="1590" y="190" width="50" height="20" as="geometry"/>
                </mxCell>
                <mxCell id="3oL66JDY5k0KGZfWDgL4-11" value="for A" style="rounded=0;whiteSpace=wrap;html=1;labelBorderColor=none;fontSize=10;strokeColor=#d6b656;fillColor=#fff2cc;" parent="tb83j11qum5MAXQGklNA-1" vertex="1">
                    <mxGeometry x="1640" y="190" width="50" height="20" as="geometry"/>
                </mxCell>
                <mxCell id="3oL66JDY5k0KGZfWDgL4-12" value="+" style="rounded=0;whiteSpace=wrap;html=1;labelBorderColor=none;fontSize=10;strokeColor=default;" parent="tb83j11qum5MAXQGklNA-1" vertex="1">
                    <mxGeometry x="1840" y="190" width="20" height="20" as="geometry"/>
                </mxCell>
                <mxCell id="3oL66JDY5k0KGZfWDgL4-13" value="2" style="rounded=0;whiteSpace=wrap;html=1;labelBorderColor=none;fontSize=10;strokeColor=default;" parent="tb83j11qum5MAXQGklNA-1" vertex="1">
                    <mxGeometry x="1860" y="190" width="20" height="20" as="geometry"/>
                </mxCell>
                <mxCell id="3oL66JDY5k0KGZfWDgL4-14" value="7" style="rounded=0;whiteSpace=wrap;html=1;labelBorderColor=none;fontSize=10;strokeColor=default;" parent="tb83j11qum5MAXQGklNA-1" vertex="1">
                    <mxGeometry x="1260" y="190" width="20" height="20" as="geometry"/>
                </mxCell>
                <mxCell id="3oL66JDY5k0KGZfWDgL4-15" value="ignored" style="rounded=0;whiteSpace=wrap;html=1;labelBorderColor=none;fontSize=10;strokeColor=default;" parent="tb83j11qum5MAXQGklNA-1" vertex="1">
                    <mxGeometry x="1690" y="190" width="60" height="20" as="geometry"/>
                </mxCell>
                <mxCell id="wGKvVfvuGRhEK224psej-0" value="non-focusable" style="rounded=1;whiteSpace=wrap;html=1;sketch=0;glass=0;shadow=0;fillColor=#eeeeee;strokeColor=#36393d;" parent="tb83j11qum5MAXQGklNA-1" vertex="1">
                    <mxGeometry x="110" y="720" width="120" height="30" as="geometry"/>
                </mxCell>
                <mxCell id="6RVOOF6dNoMXqNm8IWjH-57" style="edgeStyle=none;html=1;entryX=0.5;entryY=0;entryDx=0;entryDy=0;exitX=0.25;exitY=1;exitDx=0;exitDy=0;" parent="tb83j11qum5MAXQGklNA-1" source="6RVOOF6dNoMXqNm8IWjH-49" target="6RVOOF6dNoMXqNm8IWjH-56" edge="1">
                    <mxGeometry relative="1" as="geometry"/>
                </mxCell>
                <mxCell id="wGKvVfvuGRhEK224psej-1" value="StdToggle" style="rounded=1;whiteSpace=wrap;html=1;sketch=0;glass=0;shadow=0;fillColor=#eeeeee;strokeColor=#36393d;" parent="tb83j11qum5MAXQGklNA-1" vertex="1">
                    <mxGeometry x="440" y="409.89" width="120" height="30.23" as="geometry"/>
                </mxCell>
                <mxCell id="wGKvVfvuGRhEK224psej-2" value="2" style="ellipse;whiteSpace=wrap;html=1;aspect=fixed;fillColor=#1ba1e2;strokeColor=#006EAF;fontColor=#ffffff;fontSize=8;" parent="tb83j11qum5MAXQGklNA-1" vertex="1">
                    <mxGeometry x="443" y="412.99999999999994" width="10" height="10" as="geometry"/>
                </mxCell>
                <mxCell id="wGKvVfvuGRhEK224psej-4" value="2" style="ellipse;whiteSpace=wrap;html=1;aspect=fixed;fillColor=#d80073;strokeColor=#A50040;fontColor=#ffffff;fontSize=8;" parent="tb83j11qum5MAXQGklNA-1" vertex="1">
                    <mxGeometry x="283" y="426.77" width="10" height="10" as="geometry"/>
                </mxCell>
                <mxCell id="LmhFdAcjJDlFZFf1SMNo-0" value="textarea" style="rounded=1;whiteSpace=wrap;html=1;fillColor=#ffe6cc;strokeColor=#d79b00;" parent="tb83j11qum5MAXQGklNA-1" vertex="1">
                    <mxGeometry x="520" y="290" width="120" height="30" as="geometry"/>
                </mxCell>
                <mxCell id="LmhFdAcjJDlFZFf1SMNo-2" value="item0" style="rounded=1;whiteSpace=wrap;html=1;" parent="tb83j11qum5MAXQGklNA-1" vertex="1">
                    <mxGeometry x="40" y="290" width="60" height="30" as="geometry"/>
                </mxCell>
                <mxCell id="LmhFdAcjJDlFZFf1SMNo-4" value="View:&lt;br&gt;e.dataForSensor.catchChildrenFocus = true/false" style="rounded=1;whiteSpace=wrap;html=1;fontFamily=Courier New;fontSize=10;fillColor=none;strokeColor=#006EAF;align=left;spacingLeft=16;" parent="tb83j11qum5MAXQGklNA-1" vertex="1">
                    <mxGeometry x="110" width="310" height="30" as="geometry"/>
                </mxCell>
                <mxCell id="LmhFdAcjJDlFZFf1SMNo-5" value="" style="ellipse;whiteSpace=wrap;html=1;aspect=fixed;fillColor=#fa6800;strokeColor=#C73500;fontColor=#000000;fontSize=8;" parent="tb83j11qum5MAXQGklNA-1" vertex="1">
                    <mxGeometry x="114" y="4" width="10" height="10" as="geometry"/>
                </mxCell>
                <mxCell id="LmhFdAcjJDlFZFf1SMNo-6" value="3" style="ellipse;whiteSpace=wrap;html=1;aspect=fixed;fillColor=#fa6800;strokeColor=#C73500;fontColor=#000000;fontSize=8;" parent="tb83j11qum5MAXQGklNA-1" vertex="1">
                    <mxGeometry x="534" y="238.99999999999997" width="10" height="10" as="geometry"/>
                </mxCell>
                <mxCell id="hP0huzATBLtgXGqkZDFe-1" value="item1" style="rounded=1;whiteSpace=wrap;html=1;" parent="tb83j11qum5MAXQGklNA-1" vertex="1">
                    <mxGeometry x="110" y="289.77" width="60" height="30" as="geometry"/>
                </mxCell>
                <mxCell id="hP0huzATBLtgXGqkZDFe-2" value="item n" style="rounded=1;whiteSpace=wrap;html=1;" parent="tb83j11qum5MAXQGklNA-1" vertex="1">
                    <mxGeometry x="250" y="289.77" width="60" height="30" as="geometry"/>
                </mxCell>
                <mxCell id="hP0huzATBLtgXGqkZDFe-3" value="..." style="rounded=1;whiteSpace=wrap;html=1;" parent="tb83j11qum5MAXQGklNA-1" vertex="1">
                    <mxGeometry x="180" y="289.77" width="60" height="30" as="geometry"/>
                </mxCell>
                <mxCell id="LmhFdAcjJDlFZFf1SMNo-3" style="edgeStyle=none;html=1;entryX=0.5;entryY=0;entryDx=0;entryDy=0;" parent="tb83j11qum5MAXQGklNA-1" source="6RVOOF6dNoMXqNm8IWjH-37" target="LmhFdAcjJDlFZFf1SMNo-2" edge="1">
                    <mxGeometry relative="1" as="geometry"/>
                </mxCell>
                <mxCell id="hP0huzATBLtgXGqkZDFe-4" style="edgeStyle=none;html=1;entryX=0.5;entryY=0;entryDx=0;entryDy=0;" parent="tb83j11qum5MAXQGklNA-1" source="6RVOOF6dNoMXqNm8IWjH-37" target="hP0huzATBLtgXGqkZDFe-1" edge="1">
                    <mxGeometry relative="1" as="geometry">
                        <mxPoint x="150" y="296" as="targetPoint"/>
                    </mxGeometry>
                </mxCell>
                <mxCell id="hP0huzATBLtgXGqkZDFe-5" style="edgeStyle=none;html=1;entryX=0.5;entryY=0;entryDx=0;entryDy=0;" parent="tb83j11qum5MAXQGklNA-1" source="6RVOOF6dNoMXqNm8IWjH-37" target="hP0huzATBLtgXGqkZDFe-3" edge="1">
                    <mxGeometry relative="1" as="geometry"/>
                </mxCell>
                <mxCell id="hP0huzATBLtgXGqkZDFe-6" style="edgeStyle=none;html=1;entryX=0.5;entryY=0;entryDx=0;entryDy=0;" parent="tb83j11qum5MAXQGklNA-1" source="6RVOOF6dNoMXqNm8IWjH-37" target="hP0huzATBLtgXGqkZDFe-2" edge="1">
                    <mxGeometry relative="1" as="geometry"/>
                </mxCell>
                <mxCell id="hP0huzATBLtgXGqkZDFe-7" value="5" style="ellipse;whiteSpace=wrap;html=1;aspect=fixed;fillColor=#1ba1e2;strokeColor=#006EAF;fontColor=#ffffff;fontSize=8;" parent="tb83j11qum5MAXQGklNA-1" vertex="1">
                    <mxGeometry x="43" y="292.77" width="10" height="10" as="geometry"/>
                </mxCell>
                <mxCell id="hP0huzATBLtgXGqkZDFe-8" value="5" style="ellipse;whiteSpace=wrap;html=1;aspect=fixed;fillColor=#1ba1e2;strokeColor=#006EAF;fontColor=#ffffff;fontSize=8;" parent="tb83j11qum5MAXQGklNA-1" vertex="1">
                    <mxGeometry x="114" y="292.77" width="10" height="10" as="geometry"/>
                </mxCell>
                <mxCell id="hP0huzATBLtgXGqkZDFe-9" value="5" style="ellipse;whiteSpace=wrap;html=1;aspect=fixed;fillColor=#1ba1e2;strokeColor=#006EAF;fontColor=#ffffff;fontSize=8;" parent="tb83j11qum5MAXQGklNA-1" vertex="1">
                    <mxGeometry x="183" y="292.77" width="10" height="10" as="geometry"/>
                </mxCell>
                <mxCell id="hP0huzATBLtgXGqkZDFe-10" value="5" style="ellipse;whiteSpace=wrap;html=1;aspect=fixed;fillColor=#1ba1e2;strokeColor=#006EAF;fontColor=#ffffff;fontSize=8;" parent="tb83j11qum5MAXQGklNA-1" vertex="1">
                    <mxGeometry x="253" y="292.77" width="10" height="10" as="geometry"/>
                </mxCell>
                <mxCell id="hP0huzATBLtgXGqkZDFe-16" style="edgeStyle=none;html=1;entryX=0.5;entryY=0;entryDx=0;entryDy=0;" parent="tb83j11qum5MAXQGklNA-1" source="hP0huzATBLtgXGqkZDFe-11" target="hP0huzATBLtgXGqkZDFe-15" edge="1">
                    <mxGeometry relative="1" as="geometry"/>
                </mxCell>
                <mxCell id="hP0huzATBLtgXGqkZDFe-11" value="Popup" style="rounded=1;whiteSpace=wrap;html=1;sketch=0;glass=0;shadow=0;" parent="tb83j11qum5MAXQGklNA-1" vertex="1">
                    <mxGeometry x="120" y="409.89000000000004" width="80" height="30.23" as="geometry"/>
                </mxCell>
                <mxCell id="hP0huzATBLtgXGqkZDFe-12" value="5" style="ellipse;whiteSpace=wrap;html=1;aspect=fixed;fillColor=#1ba1e2;strokeColor=#006EAF;fontColor=#ffffff;fontSize=8;" parent="tb83j11qum5MAXQGklNA-1" vertex="1">
                    <mxGeometry x="123" y="412.89" width="10" height="10" as="geometry"/>
                </mxCell>
                <mxCell id="hP0huzATBLtgXGqkZDFe-15" value="Input" style="rounded=1;whiteSpace=wrap;html=1;fillColor=#ffe6cc;strokeColor=#d79b00;" parent="tb83j11qum5MAXQGklNA-1" vertex="1">
                    <mxGeometry x="100" y="479.77" width="120" height="30.23" as="geometry"/>
                </mxCell>
                <mxCell id="hP0huzATBLtgXGqkZDFe-17" value="5" style="ellipse;whiteSpace=wrap;html=1;aspect=fixed;fillColor=#fa6800;strokeColor=#C73500;fontColor=#000000;fontSize=8;" parent="tb83j11qum5MAXQGklNA-1" vertex="1">
                    <mxGeometry x="123" y="426.77" width="10" height="10" as="geometry"/>
                </mxCell>
            </root>
        </mxGraphModel>
    </diagram>
</mxfile>
